<svg xmlns="http://www.w3.org/2000/svg" width="46.366" height="66.464" viewBox="0 0 46.366 66.464">
  <g id="Group_1097" data-name="Group 1097" transform="translate(1.138 1.131)">
    <path id="Path_764" data-name="Path 764" d="M70.814,73.589a3.419,3.419,0,0,0,2.943-1.974,6.213,6.213,0,0,1,5.564-3.193c2.215-.042,3.38-1.14,3.424-3.33A6.4,6.4,0,0,1,86.131,59.3a3.021,3.021,0,0,0,1.2-4.446,6.367,6.367,0,0,1,0-6.769,3,3,0,0,0-1.127-4.4,6.525,6.525,0,0,1-3.466-5.995,2.974,2.974,0,0,0-3.169-3.169,6.473,6.473,0,0,1-5.986-3.466,2.957,2.957,0,0,0-4.261-1.173,6.557,6.557,0,0,1-6.993.024,2.966,2.966,0,0,0-4.317,1.185,6.437,6.437,0,0,1-5.927,3.427,2.984,2.984,0,0,0-3.211,3.209,6.559,6.559,0,0,1-3.5,5.982,2.957,2.957,0,0,0-1.152,4.265,6.528,6.528,0,0,1,0,6.992,2.966,2.966,0,0,0,1.149,4.268,6.559,6.559,0,0,1,3.5,6.059,2.974,2.974,0,0,0,3.205,3.119,6.4,6.4,0,0,1,5.881,3.369,3.05,3.05,0,0,0,4.511,1.185,6.331,6.331,0,0,1,6.7.015A10.179,10.179,0,0,0,70.814,73.589Z" transform="translate(-43.739 -29.409)" fill="#ffde00" stroke="#000" stroke-linecap="round" stroke-linejoin="round" stroke-width="2"/>
    <path id="Path_765" data-name="Path 765" d="M51.8,86.125l-4.109,9.226-3.152,7.072c-.459,1.027.167,1.865,1.395,1.872l7.41.041,4.985,5.481c.83.911,1.868.813,2.326-.213l3.152-7.073,2.1-4.717,2.1,4.717,3.15,7.073c.459,1.027,1.5,1.124,2.326.213l4.987-5.481,7.407-.041c1.228-.007,1.854-.846,1.4-1.872l-3.149-7.072L80.16,86.44" transform="translate(-43.931 -46.111)" fill="none" stroke="#000" stroke-linecap="round" stroke-linejoin="round" stroke-width="2"/>
    <path id="Path_766" data-name="Path 766" d="M75.694,64.932V51.42c.006-.851-.727-1.488-1.425-.274l-.96,1.551" transform="translate(-52.447 -35.611)" fill="none" stroke="#000" stroke-linecap="round" stroke-linejoin="round" stroke-width="2"/>
    <g id="Group_1096" data-name="Group 1096" transform="translate(7.883 9.967)">
      <path id="Path_767" data-name="Path 767" d="M55.415,55.419A14.176,14.176,0,0,0,63.05,72" transform="translate(-54.913 -47.035)" fill="none" stroke="#000" stroke-linecap="round" stroke-linejoin="round" stroke-width="2"/>
      <path id="Path_768" data-name="Path 768" d="M91.747,59.4a14.179,14.179,0,0,0-6.3-15.865" transform="translate(-63.903 -43.536)" fill="none" stroke="#000" stroke-linecap="round" stroke-linejoin="round" stroke-width="2"/>
    </g>
  </g>
</svg>

