<svg xmlns="http://www.w3.org/2000/svg" width="108.166" height="39.418" viewBox="0 0 108.166 39.418">
  <g id="Group_1094" data-name="Group 1094" transform="translate(1.015 1.209)">
    <path id="Path_757" data-name="Path 757" d="M-504.8,85.124a4.509,4.509,0,0,1,.721-1.679,5.443,5.443,0,0,0-1.681-5.638c-2.758-2.279-10.916-3.837-14.032-4.438s-10.075-1.2-10.075-1.2-8.281-6.48-14.635-7.558c-8.951-1.517-21.834-.72-26.992.72s-11.872,5.4-11.872,5.4l-7.078.6-.479.841.479,1.8.48.718-.6,3.961-1.771,1.439.213,3.118s-.48,1.56,0,1.919a15.625,15.625,0,0,1,1.558,1.679l3.961.24,2.638.359h5.2a5.829,5.829,0,0,1-.2-1.5,5.819,5.819,0,0,1,5.819-5.816,5.817,5.817,0,0,1,5.818,5.816,5.827,5.827,0,0,1-.2,1.5h43.049a5.792,5.792,0,0,1-.2-1.5,5.816,5.816,0,0,1,5.816-5.816,5.816,5.816,0,0,1,5.818,5.816,5.827,5.827,0,0,1-.2,1.5h.425l1.8.6h3.722l3.444-1.44S-504.8,85.726-504.8,85.124Z" transform="translate(592.334 -54.513)" fill="#ffde00" stroke="#000" stroke-linecap="round" stroke-linejoin="round" stroke-width="2"/>
    <g id="Group_1094-2" data-name="Group 1094" transform="translate(40.171)">
      <path id="Path_758" data-name="Path 758" d="M-544.054,53.9a74.471,74.471,0,0,1,25.243-.349c6.358,1.2,14.636,8.442,14.636,8.442s6.959.669,10.076,1.34,11.274,2.412,14.032,4.959,1.682,6.3,1.682,6.3a5.335,5.335,0,0,0-.721,1.875c0,.671.927,1.607.927,1.607l-3.442,1.609h-3.722l-1.8-.671" transform="translate(544.054 -52.64)" fill="none" stroke="#000" stroke-linecap="round" stroke-linejoin="round" stroke-width="2"/>
      <line id="Line_82" data-name="Line 82" x1="18.208" y1="0.582" transform="translate(19.798 9.142)" fill="none" stroke="#000" stroke-linecap="round" stroke-linejoin="round" stroke-width="2"/>
      <path id="Path_759" data-name="Path 759" d="M-481.006,86.946a5.821,5.821,0,0,0,3.906-5.5,5.817,5.817,0,0,0-5.818-5.818" transform="translate(533.786 -56.501)" fill="none" stroke="#000" stroke-linecap="round" stroke-linejoin="round" stroke-width="2"/>
    </g>
    <line id="Line_83" data-name="Line 83" x1="39.103" y1="1.798" transform="translate(17.848 18.017)" fill="none" stroke="#000" stroke-linecap="round" stroke-linejoin="round" stroke-width="2"/>
    <line id="Line_84" data-name="Line 84" x2="1.203" y2="3.23" transform="translate(39.919 15.857)" fill="none" stroke="#000" stroke-linecap="round" stroke-linejoin="round" stroke-width="2"/>
    <path id="Path_760" data-name="Path 760" d="M-576.273,89.193a5.82,5.82,0,0,0,5.819,5.818,5.818,5.818,0,0,0,5.818-5.818,5.817,5.817,0,0,0-5.818-5.817A5.819,5.819,0,0,0-576.273,89.193Z" transform="translate(589.637 -57.802)" fill="none" stroke="#000" stroke-linecap="round" stroke-linejoin="round" stroke-width="2"/>
    <path id="Path_761" data-name="Path 761" d="M-511.034,89.193a5.818,5.818,0,0,0,5.816,5.818,5.817,5.817,0,0,0,5.818-5.818,5.816,5.816,0,0,0-5.818-5.817A5.817,5.817,0,0,0-511.034,89.193Z" transform="translate(578.68 -57.802)" fill="none" stroke="#000" stroke-linecap="round" stroke-linejoin="round" stroke-width="2"/>
  </g>
</svg>
